# xmcd
#
# Track frame offsets:
# 150
# 9371
# 17867
# 24832
# 34433
# 49730
# 57678
# 73738
# 86381
# 108116
# 117629
# 125662
# 134985
# 157108
# 168543
# 182718
# 192603
# 203695
# 218083
# 243452
# 265085
# 279240
#
# Disc length: 4135 seconds
#
# Revision: 0
# Processed by: cddbd v1.4PL0 Copyright (c) Steve Scherf et al.
# Submitted via: Audion 3.0.2 (http://www.panic.com/audion/)
#
DISCID=4c102516
DTITLE=Pogues - pogues rarities vol.1
DYEAR=1900
DGENRE=
TTITLE0=king of pop
TTITLE1=nervous wreck
TTITLE2=so pissed off
TTITLE3=stavordale road h5
TTITLE4=all the time in the world
TTITLE5=private eye
TTITLE6=gabrielle
TTITLE7=vengeance
TTITLE8=and the band played waltzing matilda
TTITLE9=repeal of the licensing laws
TTITLE10=muirshin dirkin
TTITLE11=whiskey , your the devil
TTITLE12=a pair of brown eyes
TTITLE13=wild rover
TTITLE14=leaving of liverpool
TTITLE15=the parting glass
TTITLE16=a pistol for paddy garcia
TTITLE17=london girl
TTITLE18=a rainy night in soho
TTITLE19=the body of an american
TTITLE20=planxty noel hotel
TTITLE21=interview
EXTD=
EXTT0=
EXTT1=
EXTT2=
EXTT3=
EXTT4=
EXTT5=
EXTT6=
EXTT7=
EXTT8=
EXTT9=
EXTT10=
EXTT11=
EXTT12=
EXTT13=
EXTT14=
EXTT15=
EXTT16=
EXTT17=
EXTT18=
EXTT19=
EXTT20=
EXTT21=
PLAYORDER=
